<svg xmlns="http://www.w3.org/2000/svg" width="61.546" height="30" viewBox="0 0 61.546 30" style="--cs-zoom:1;"><script xmlns=""/>
  <g id="logo" transform="translate(-81.388 -56.692)">
    <path id="Path_642" data-name="Path 642" d="M96.388,84.591a12.9,12.9,0,1,1,12.9-12.9,12.9,12.9,0,0,1-12.9,12.9m0-27.9a15,15,0,1,0,15,15,15,15,0,0,0-15-15" fill="#3a4154"/>
    <path id="Path_643" data-name="Path 643" d="M111.193,95.048a8.551,8.551,0,1,1,8.551-8.552,8.551,8.551,0,0,1-8.551,8.552m0-19.577A11.025,11.025,0,1,0,122.218,86.5a11.025,11.025,0,0,0-11.024-11.025" transform="translate(-14.806 -14.804)" fill="#3a4154"/>
    <path id="Path_644" data-name="Path 644" d="M252.27,97.227h.6v2.585h4.012v.558H252.87V105.4c0,2.151.682,3.267,2.42,3.267a2.619,2.619,0,0,0,1.509-.5l.248.476a3.31,3.31,0,0,1-1.861.579c-2.068,0-2.916-1.261-2.916-3.639Z" transform="translate(-134.712 -31.955)" fill="#3a4154"/>
    <path id="Path_645" data-name="Path 645" d="M289.5,115.839v-1.861a4.668,4.668,0,0,0-2.771-.827c-1.447,0-2.957.682-2.957,2.3a2.166,2.166,0,0,0,2.4,2.151,3.849,3.849,0,0,0,3.33-1.758m-5.625-6.431a5.179,5.179,0,0,1,2.853-.848c2.5,0,3.35,1.365,3.35,3.68v5.811H289.5v-1.613a3.985,3.985,0,0,1-3.454,1.716,2.627,2.627,0,0,1-2.895-2.667c0-1.861,1.53-2.833,3.536-2.833a5.039,5.039,0,0,1,2.812.765c0-2.585-.1-4.3-2.833-4.3a4.652,4.652,0,0,0-2.605.785Z" transform="translate(-159.054 -40.89)" fill="#3a4154"/>
    <path id="Path_646" data-name="Path 646" d="M332.114,110.69v6a5.376,5.376,0,0,0,3.247.993,4.058,4.058,0,0,0,4.136-4.363c0-2.5-1.427-4.2-3.929-4.2a4.631,4.631,0,0,0-3.453,1.571m-.6-1.944h.6v1.365a4.925,4.925,0,0,1,3.577-1.551c2.771,0,4.425,1.944,4.425,4.694a4.672,4.672,0,0,1-4.735,4.983,5.393,5.393,0,0,1-3.267-.93v4.88h-.6Z" transform="translate(-197.183 -40.889)" fill="#3a4154"/>
  </g>
</svg>